<svg xmlns="http://www.w3.org/2000/svg" width="64" height="64" viewBox="0 0 64 64">
    <g fill="none" fill-rule="evenodd">
        <rect width="64" height="64" fill="#333" rx="10"/>
        <path fill="#999" d="M42 31.989c0-1.797-.444-3.477-1.354-5.018a10.075 10.075 0 0 0-3.64-3.64C35.487 22.444 33.807 22 31.987 22c-1.797 0-3.477.444-4.994 1.33a10.328 10.328 0 0 0-3.664 3.64A9.906 9.906 0 0 0 22 31.99c0 1.82.443 3.5 1.33 5.017a10.22 10.22 0 0 0 3.664 3.664c1.517.887 3.197 1.33 4.994 1.33 1.82 0 3.5-.443 5.017-1.33a9.973 9.973 0 0 0 3.641-3.664C41.556 35.49 42 33.81 42 31.99zm-10.829 6.675a.794.794 0 0 1-.583-.257.796.796 0 0 1-.257-.584V31.29l-2.45 2.473a.871.871 0 0 1-.584.233.824.824 0 0 1-.583-.233l-1.19-1.19a.774.774 0 0 1-.234-.583c0-.233.07-.443.234-.584l4.714-4.714 1.166-1.19a.774.774 0 0 1 .584-.233c.256 0 .443.07.607.233l1.166 1.19 4.714 4.714c.164.14.234.35.234.584 0 .233-.07.42-.234.583l-1.19 1.19a.777.777 0 0 1-.583.233.81.81 0 0 1-.584-.233l-2.45-2.473v6.534c0 .233-.093.42-.256.584a.797.797 0 0 1-.584.257H31.17z"/>
    </g>
</svg>
